<?xml version="1.0" encoding="iso-8859-1"?>
<!-- Generator: Adobe Illustrator 16.0.0, SVG Export Plug-In . SVG Version: 6.00 Build 0)  -->
<!DOCTYPE svg PUBLIC "-//W3C//DTD SVG 1.1//EN" "http://www.w3.org/Graphics/SVG/1.1/DTD/svg11.dtd">
<svg version="1.1" id="Capa_1" xmlns="http://www.w3.org/2000/svg" xmlns:xlink="http://www.w3.org/1999/xlink" x="0px" y="0px"
	 width="214.556px" height="214.556px" viewBox="0 0 214.556 214.556" style="enable-background:new 0 0 214.556 214.556;"
	 xml:space="preserve">
<g>
	<g>
		<path d="M160.866,212.558l23.359-11.827L110.054,69.792c0,0-15.773,15.773-30.957,18.692s-30.954-5.256-30.954-5.256
			s1.749,12.847,18.688,14.599l1.752,17.521c0,0,17.521,0.513,19.273,2.594c1.752,2.081,2.337,19.712,2.337,19.712l20.441,3.521
			l1.752,20.898l19.273,2.334l2.337,22.806h19.859l1.167,21.84L160.866,212.558z"/>
		<path d="M160.79,214.556l-7.467-4.479l-1.129-21.111h-19.78l-2.358-22.986l-19.297-2.338l-1.76-20.971l-20.514-3.531l-0.05-1.424
			c-0.26-7.901-1.086-17.292-1.962-18.692c-1.241-0.849-10.323-1.697-17.949-1.923l-1.539-0.048l-1.759-17.658
			C48.438,96.95,46.425,83.599,46.408,83.461l-0.455-3.338l2.993,1.545c0.113,0.06,11.151,5.691,23.265,5.691
			c2.285,0,4.488-0.204,6.552-0.599c14.474-2.782,29.896-18.056,30.05-18.209l1.63-1.625l76.213,134.537L160.79,214.556z
			 M156.725,208.03l4.21,2.528l20.861-10.561L109.636,72.61c-4.509,4.156-17.405,15.134-30.206,17.595
			c-2.283,0.438-4.71,0.659-7.219,0.659c-8.694,0-16.681-2.615-21.152-4.42c1.746,3.527,5.969,8.604,15.954,9.637l1.42,0.147
			l1.742,17.416c8.036,0.294,17.272,1.088,19.024,3.165c1.739,2.07,2.426,12.446,2.698,19.353l20.371,3.511l1.745,20.827
			l19.25,2.334l2.316,22.621h19.935L156.725,208.03z"/>
	</g>
	<g>
		<path d="M70.831,84.805L70.831,84.805c-12.067,0-23.245-7.998-23.714-8.336l-0.428-0.443l-29.87-44.339h12.741l27.043-15.97
			c4.801-2.879,4.404-9.39,4.397-9.454C60.997,2.291,62.963,0,66.253,0c2.106,0,4.069,0.95,4.29,1.062l0.462,0.231l0.264,0.444
			l37.575,63.817l-1.208,0.946c-0.558,0.435-13.786,10.73-27.86,16.593C77.047,84.229,74.037,84.805,70.831,84.805z M49.411,73.797
			c1.654,1.129,11.421,7.503,21.416,7.503l0,0c2.743,0,5.297-0.488,7.594-1.444c11.228-4.678,22.227-12.517,25.822-15.191
			L68.531,4.006c-0.568-0.221-1.475-0.505-2.281-0.505c-0.698,0-1.752,0-1.752,2.628c0.021,0.221,0.582,8.583-6.108,12.599
			L30.518,35.187h-7.115L49.411,73.797z"/>
	</g>
	<g>
		<path d="M52.965,58.697h-0.15c-4.29,0-7.654-1.345-10.005-3.999c-4.286-4.835-3.448-12.195-3.414-12.506l0.173-1.418l1.422-0.116
			c4.875-0.399,18.728-9.644,23.654-13.168l0.551-0.394l0.669,0.074c0.339,0.042,8.374,1.023,11.238,6.305
			c1.489,2.743,1.314,6.013-0.527,9.71c-6.167,12.39-22.763,15.369-23.464,15.492L52.965,58.697z M42.813,43.874
			c-0.014,1.986,0.291,5.888,2.628,8.513c1.629,1.829,4.055,2.775,7.216,2.806c1.555-0.305,15.692-3.335,20.788-13.572
			c1.295-2.61,1.496-4.786,0.585-6.471c-1.487-2.745-5.754-4.016-7.928-4.403C62.829,33.06,49.709,42.129,42.813,43.874z"/>
	</g>
	<g>
		<path d="M75.011,78.924c-3.381,0-6.133-2.751-6.133-6.133c0-3.381,2.751-6.132,6.133-6.132c3.381,0,6.132,2.751,6.132,6.132
			C81.143,76.172,78.392,78.924,75.011,78.924z M75.011,70.163c-1.448,0-2.628,1.181-2.628,2.628c0,1.448,1.181,2.628,2.628,2.628
			c1.447,0,2.628-1.181,2.628-2.628C77.639,71.344,76.458,70.163,75.011,70.163z"/>
	</g>
	<g>
		<path d="M89.87,70.163c-3.383,0-6.132-2.751-6.132-6.133c0-3.381,2.75-6.132,6.132-6.132c3.381,0,6.132,2.751,6.132,6.132
			C96.002,67.412,93.25,70.163,89.87,70.163z M89.87,61.402c-1.448,0-2.628,1.181-2.628,2.628c0,1.448,1.181,2.628,2.628,2.628
			c1.446,0,2.628-1.181,2.628-2.628C92.498,62.583,91.315,61.402,89.87,61.402z"/>
	</g>
	<g>
		<path d="M200.289,164.698H14.267v-18.104h186.022V164.698z M17.771,161.194h179.013V150.1H17.771V161.194z"/>
	</g>
</g>
<g>
</g>
<g>
</g>
<g>
</g>
<g>
</g>
<g>
</g>
<g>
</g>
<g>
</g>
<g>
</g>
<g>
</g>
<g>
</g>
<g>
</g>
<g>
</g>
<g>
</g>
<g>
</g>
<g>
</g>
</svg>
