<?xml version="1.0" encoding="iso-8859-1"?>
<!-- Generator: Adobe Illustrator 16.0.0, SVG Export Plug-In . SVG Version: 6.00 Build 0)  -->
<!DOCTYPE svg PUBLIC "-//W3C//DTD SVG 1.1//EN" "http://www.w3.org/Graphics/SVG/1.1/DTD/svg11.dtd">
<svg version="1.1" id="Capa_1" xmlns="http://www.w3.org/2000/svg" xmlns:xlink="http://www.w3.org/1999/xlink" x="0px" y="0px"
	 width="602.437px" height="602.438px" viewBox="0 0 602.437 602.438" style="enable-background:new 0 0 602.437 602.438;"
	 xml:space="preserve">
<g>
	<g id="iconos_34_">
		<path d="M359.512,351.527l-42.726-110.782c13.139-4.408,16.064-16.534,16.064-32.035c0,0-6.436,11.657-22.691,14.143
			l-4.494-11.676c-0.717-1.846-2.744-3.194-4.495-3.117c-1.989,0.019-3.758,1.224-4.446,3.079l-3.491,9.39
			c-4.876-2.993-5.929-8.08-5.929-12.412c0-7.65,1.195-16.371,22.711-16.371V153h11.446l11.39-86.062l-13.264-13.99V0h-9.562v42.869
			l-4.38-4.619h-20.32l-3.987,4.312V0h-9.562v52.919l-12.938,14.019L270.227,153h11.112v25.704c0,0-14.066,1.195-14.066,33.928
			c0,15.529,6.722,23.591,18.886,26.957l-39.723,109.309L153.22,420.75h295.997L359.512,351.527z M295.845,61.755
			c7.478,0,13.549,6.062,13.549,13.55s-6.062,13.55-13.549,13.55c-7.487,0-13.55-6.062-13.55-13.55S288.367,61.755,295.845,61.755z
			 M301.219,305.693l-40.679,30.305l35.2-94.746c2.295,0.191,4.666,0.315,7.21,0.315c1.577,0,2.84-0.21,4.255-0.306l37.849,97.088
			L301.219,305.693z"/>
		<path d="M319.588,497.25h57.375v105.188h28.688V468.562h-229.5v133.875h143.438V497.25z M290.901,554.625h-4.781h-62.156v-52.594
			v-4.781h66.938V554.625z"/>
	</g>
</g>
<g>
</g>
<g>
</g>
<g>
</g>
<g>
</g>
<g>
</g>
<g>
</g>
<g>
</g>
<g>
</g>
<g>
</g>
<g>
</g>
<g>
</g>
<g>
</g>
<g>
</g>
<g>
</g>
<g>
</g>
</svg>
