<?xml version="1.0" encoding="iso-8859-1"?>
<!-- Generator: Adobe Illustrator 19.0.0, SVG Export Plug-In . SVG Version: 6.00 Build 0)  -->
<svg version="1.1" id="Layer_1" xmlns="http://www.w3.org/2000/svg" xmlns:xlink="http://www.w3.org/1999/xlink" x="0px" y="0px"
	 viewBox="0 0 512 512" style="enable-background:new 0 0 512 512;" xml:space="preserve">
<g>
	<g>
		<g>
			<path d="M128.948,359.917c-6.284,0-11.378,5.095-11.378,11.378c0,13.593-11.059,24.652-24.652,24.652
				c-6.284,0-11.378,5.095-11.378,11.378c0,6.283,5.094,11.378,11.378,11.378c26.14,0,47.408-21.266,47.408-47.408
				C140.326,365.012,135.232,359.917,128.948,359.917z"/>
			<path d="M292.03,359.917c-6.284,0-11.378,5.095-11.378,11.378c0,13.593-11.059,24.652-24.652,24.652
				c-6.284,0-11.378,5.095-11.378,11.378c0,6.283,5.094,11.378,11.378,11.378c26.14,0,47.408-21.266,47.408-47.408
				C303.408,365.012,298.314,359.917,292.03,359.917z"/>
			<path d="M455.111,359.917c-6.284,0-11.378,5.095-11.378,11.378c0,13.593-11.059,24.652-24.652,24.652
				c-6.284,0-11.378,5.095-11.378,11.378c0,6.283,5.094,11.378,11.378,11.378c26.142,0,47.408-21.266,47.408-47.408
				C466.489,365.012,461.395,359.917,455.111,359.917z"/>
			<path d="M128.948,240.071c-6.284,0-11.378,5.095-11.378,11.378c0,13.593-11.059,24.652-24.652,24.652
				c-6.284,0-11.378,5.095-11.378,11.378c0,6.283,5.094,11.378,11.378,11.378c26.14,0,47.408-21.266,47.408-47.408
				C140.326,245.166,135.232,240.071,128.948,240.071z"/>
			<path d="M292.03,240.071c-6.284,0-11.378,5.095-11.378,11.378c0,13.593-11.059,24.652-24.652,24.652
				c-6.284,0-11.378,5.095-11.378,11.378c0,6.283,5.094,11.378,11.378,11.378c26.14,0,47.408-21.266,47.408-47.408
				C303.408,245.166,298.313,240.071,292.03,240.071z"/>
			<path d="M455.111,240.071c-6.284,0-11.378,5.095-11.378,11.378c0,13.593-11.059,24.652-24.652,24.652
				c-6.284,0-11.378,5.095-11.378,11.378c0,6.283,5.094,11.378,11.378,11.378c26.142,0,47.408-21.266,47.408-47.408
				C466.489,245.166,461.395,240.071,455.111,240.071z"/>
			<path d="M92.919,184.699c26.14,0,47.408-21.266,47.408-47.408c0-6.283-5.094-11.378-11.378-11.378s-11.378,5.095-11.378,11.378
				c-0.001,13.593-11.059,24.652-24.652,24.652c-6.284,0-11.378,5.095-11.378,11.378C81.541,179.604,86.635,184.699,92.919,184.699z
				"/>
			<path d="M292.03,125.913c-6.284,0-11.378,5.095-11.378,11.378c0,13.593-11.059,24.652-24.652,24.652
				c-6.284,0-11.378,5.095-11.378,11.378c0,6.283,5.094,11.378,11.378,11.378c26.14,0,47.408-21.266,47.408-47.408
				C303.408,131.008,298.314,125.913,292.03,125.913z"/>
			<path d="M500.622,47.787H11.378C5.094,47.787,0,52.882,0,59.164v312.13c0,51.235,41.682,92.919,92.919,92.919
				c35.12,0,65.745-19.589,81.541-48.41c15.795,28.821,46.42,48.41,81.54,48.41s65.745-19.589,81.541-48.41
				c15.796,28.821,46.421,48.41,81.541,48.41c51.235,0,92.918-41.684,92.918-92.919V59.164
				C512,52.882,506.906,47.787,500.622,47.787z M22.756,70.542h140.326v66.75c0,38.688-31.475,70.162-70.163,70.162
				c-38.687,0-70.162-31.474-70.162-70.162V70.542z M163.082,371.294c0,38.688-31.475,70.163-70.163,70.163
				s-70.163-31.475-70.163-70.163v-59.03c17.05,19.644,42.171,32.104,70.163,32.104c27.993,0,53.114-12.46,70.163-32.105V371.294z
				 M163.082,251.449c0,38.688-31.475,70.163-70.163,70.163s-70.163-31.475-70.163-70.163v-53.342
				c17.05,19.644,42.171,32.104,70.163,32.104c27.993,0,53.114-12.46,70.163-32.104V251.449z M326.163,371.294
				c0,38.688-31.475,70.163-70.163,70.163s-70.163-31.475-70.163-70.163v-59.03c17.05,19.644,42.171,32.104,70.163,32.104
				s53.113-12.46,70.163-32.104V371.294z M326.163,251.449c0,38.688-31.475,70.163-70.163,70.163s-70.163-31.475-70.163-70.163
				v-53.342c17.05,19.644,42.171,32.104,70.163,32.104s53.113-12.46,70.163-32.104V251.449z M256,207.454
				c-38.688,0-70.163-31.474-70.163-70.162v-66.75h140.326v66.75h0.001C326.163,175.98,294.688,207.454,256,207.454z
				 M489.244,371.294c0,38.688-31.475,70.163-70.163,70.163s-70.163-31.475-70.163-70.163v-59.031
				c17.05,19.645,42.171,32.105,70.163,32.105c27.992,0,53.113-12.46,70.163-32.104V371.294z M489.244,251.449
				c0,38.688-31.475,70.163-70.163,70.163s-70.163-31.476-70.163-70.163v-53.342c17.05,19.644,42.171,32.104,70.163,32.104
				c27.992,0,53.113-12.46,70.163-32.104V251.449z M489.244,137.292c0,38.688-31.475,70.162-70.163,70.162
				s-70.163-31.474-70.163-70.162v-66.75h140.327V137.292z"/>
			<path d="M419.081,184.699c26.14,0,47.408-21.266,47.408-47.408c0-6.283-5.094-11.378-11.378-11.378
				c-6.284,0-11.378,5.095-11.378,11.378c0,13.593-11.059,24.652-24.652,24.652c-6.284,0-11.378,5.095-11.378,11.378
				C407.703,179.604,412.797,184.699,419.081,184.699z"/>
		</g>
	</g>
</g>
<g>
</g>
<g>
</g>
<g>
</g>
<g>
</g>
<g>
</g>
<g>
</g>
<g>
</g>
<g>
</g>
<g>
</g>
<g>
</g>
<g>
</g>
<g>
</g>
<g>
</g>
<g>
</g>
<g>
</g>
</svg>
