<?xml version="1.0" encoding="iso-8859-1"?>
<!-- Generator: Adobe Illustrator 18.0.0, SVG Export Plug-In . SVG Version: 6.00 Build 0)  -->
<!DOCTYPE svg PUBLIC "-//W3C//DTD SVG 1.1//EN" "http://www.w3.org/Graphics/SVG/1.1/DTD/svg11.dtd">
<svg version="1.1" id="Capa_1" xmlns="http://www.w3.org/2000/svg" xmlns:xlink="http://www.w3.org/1999/xlink" x="0px" y="0px"
	 viewBox="0 0 404.848 404.848" style="enable-background:new 0 0 404.848 404.848;" xml:space="preserve">
<g>
	<path d="M51.278,170.279L51.278,170.279c-3.264,0-5.91,2.646-5.91,5.909v20.236h11.82v-20.236
		C57.188,172.924,54.542,170.279,51.278,170.279z"/>
	<path d="M28.713,192.843c-3.264,0-5.91,2.646-5.91,5.909v20.236h11.819v-20.236C34.623,195.489,31.977,192.843,28.713,192.843z"/>
	<path d="M105.54,222.033c0-3.264-2.646-5.91-5.91-5.91s-5.91,2.646-5.91,5.91v20.236h11.819V222.033z"/>
	<path d="M311.127,222.033c0-3.264-2.646-5.91-5.91-5.91c-3.264,0-5.91,2.646-5.91,5.91v20.236h11.819V222.033z"/>
	<path d="M208.334,206.99c0-3.264-2.646-5.91-5.91-5.91s-5.91,2.646-5.91,5.91v20.236h11.819V206.99z"/>
	<path d="M208.334,167.592c0-3.264-2.646-5.91-5.91-5.91s-5.91,2.646-5.91,5.91v20.236h11.819V167.592z"/>
	<path d="M400.848,118.553c-2.209,0-4,1.791-4,4v6.028h-10.087v-6.028c0-2.209-1.791-4-4-4s-4,1.791-4,4v6.028h-10.088v-6.028
		c0-2.209-1.791-4-4-4c-2.209,0-4,1.791-4,4v6.028h-10.087v-6.028c0-2.209-1.791-4-4-4c-2.209,0-4,1.791-4,4v6.028h-10.088v-6.028
		c0-2.209-1.791-4-4-4c-2.209,0-4,1.791-4,4v10.028v19.341c0,1.813,1.213,3.325,2.865,3.816v35.074h-9.191v-7.461
		c0-2.209-1.791-4-4-4c-2.209,0-4,1.791-4,4v7.461h-8.477v-7.461c0-2.209-1.791-4-4-4c-2.209,0-4,1.791-4,4v7.461h-10.624v-29.966
		h1.73c2.209,0,4-1.791,4-4v-31.851c0-2.209-1.791-4-4-4c-2.209,0-4,1.791-4,4v6.361h-11.818v-6.361c0-2.209-1.791-4-4-4
		c-2.209,0-4,1.791-4,4v6.361h-11.818v-6.361c0-2.209-1.791-4-4-4s-4,1.791-4,4v6.361h-11.818v-6.361c0-2.209-1.791-4-4-4
		s-4,1.791-4,4v16.39h-7.233v-7.461c0-2.209-1.791-4-4-4s-4,1.791-4,4v7.461h-7.379v-7.461c0-2.209-1.791-4-4-4s-4,1.791-4,4v7.461
		h-7.233v-16.39c0-2.209-1.791-4-4-4s-4,1.791-4,4v6.361h-11.818v-6.361c0-2.209-1.791-4-4-4c-2.209,0-4,1.791-4,4v6.361h-11.819
		v-6.361c0-2.209-1.791-4-4-4s-4,1.791-4,4v6.361h-11.818v-6.361c0-2.209-1.791-4-4-4c-2.209,0-4,1.791-4,4v31.851
		c0,2.209,1.791,4,4,4h1.73v29.966h-10.624v-7.461c0-2.209-1.791-4-4-4s-4,1.791-4,4v7.461h-8.476v-7.461c0-2.209-1.791-4-4-4
		s-4,1.791-4,4v7.461h-9.192v-35.074c1.652-0.491,2.865-2.004,2.865-3.816v-29.369c0-2.209-1.791-4-4-4c-2.209,0-4,1.791-4,4v6.028
		H62.262v-6.028c0-2.209-1.791-4-4-4c-2.209,0-4,1.791-4,4v6.028H44.175v-6.028c0-2.209-1.791-4-4-4c-2.209,0-4,1.791-4,4v6.028
		H26.087v-6.028c0-2.209-1.791-4-4-4c-2.209,0-4,1.791-4,4v6.028H8v-6.028c0-2.209-1.791-4-4-4c-2.209,0-4,1.791-4,4v29.369
		c0,1.813,1.213,3.325,2.865,3.816v126.557c0,2.209,1.791,4,4,4h391.118c2.209,0,4-1.791,4-4V155.739
		c1.652-0.491,2.865-2.004,2.865-3.816v-19.341v-10.028C404.848,120.344,403.057,118.553,400.848,118.553z M396.848,147.922h-64.35
		v-11.341h64.35V147.922z M327.364,198.813v79.482h-44.292v-79.482H327.364z M280.802,152.847h-51.455v-13.489h51.455V152.847z
		 M221.347,149.386v7.461c0,2.209,1.791,4,4,4h1.73v117.448h-9.551v-25.781c0-7.903-6.43-14.334-14.333-14.334h-1.54
		c-7.903,0-14.333,6.431-14.333,14.334v25.781h-9.55V160.847h1.73c2.209,0,4-1.791,4-4v-7.461H221.347z M175.501,152.847h-51.456
		v-13.489h51.456V152.847z M121.776,198.813v79.482H77.484v-79.482H121.776z M72.35,147.922H8v-11.341h64.35V147.922z
		 M10.865,155.922h58.619v122.373H10.865V155.922z M129.776,160.847h6.088v1.205c0,2.209,1.791,4,4,4s4-1.791,4-4v-1.205h11.819
		v1.205c0,2.209,1.791,4,4,4c2.209,0,4-1.791,4-4v-1.205h6.088v117.448h-39.995V160.847z M195.321,278.295v-25.781
		c0-3.492,2.841-6.334,6.333-6.334h1.54c3.492,0,6.333,2.842,6.333,6.334v25.781H195.321z M235.078,160.847h6.088v1.205
		c0,2.209,1.791,4,4,4s4-1.791,4-4v-1.205h11.818v1.205c0,2.209,1.791,4,4,4c2.209,0,4-1.791,4-4v-1.205h6.088v117.448h-39.994
		V160.847z M393.983,278.295h-58.619V155.922h58.619V278.295z"/>
	<path d="M359.48,176.188c0-3.264-2.646-5.909-5.91-5.909c-3.264,0-5.91,2.646-5.91,5.909v20.236h11.819V176.188z"/>
	<path d="M382.044,198.752c0-3.264-2.646-5.909-5.91-5.909h0c-3.264,0-5.91,2.646-5.91,5.909v20.236h11.82V198.752z"/>
</g>
<g>
</g>
<g>
</g>
<g>
</g>
<g>
</g>
<g>
</g>
<g>
</g>
<g>
</g>
<g>
</g>
<g>
</g>
<g>
</g>
<g>
</g>
<g>
</g>
<g>
</g>
<g>
</g>
<g>
</g>
</svg>
