<?xml version="1.0" encoding="iso-8859-1"?>
<!-- Generator: Adobe Illustrator 19.0.0, SVG Export Plug-In . SVG Version: 6.00 Build 0)  -->
<svg version="1.1" id="Layer_1" xmlns="http://www.w3.org/2000/svg" xmlns:xlink="http://www.w3.org/1999/xlink" x="0px" y="0px"
	 viewBox="0 0 510.536 510.536" style="enable-background:new 0 0 510.536 510.536;" xml:space="preserve">
<g>
	<g>
		<path d="M508.727,6.572c-1.621-2.074-4.104-3.285-6.724-3.285H365.47H225.387c-0.631,0-1.203,0.265-1.809,0.401
			c-0.794-0.247-1.63-0.401-2.483-0.401h-0.691H83.87h-2.15c-4.053,0-7.552,2.85-8.363,6.818L63.305,59.189
			c-0.009,0.008-0.017,0.017-0.017,0.034L42.722,159.532L22.148,259.85c-0.009,0.026-0.009,0.06-0.017,0.085L1.574,360.16
			c-8.508,41.481,18.321,82.159,59.802,90.667c5.188,1.067,10.351,1.57,15.454,1.57c23.535,0,45.448-10.948,59.819-28.791
			c7.518,26.829,29.355,48.674,58.479,54.647c5.188,1.067,10.359,1.57,15.454,1.57c23.543,0,45.449-10.948,59.819-28.783
			c7.518,26.82,29.355,48.666,58.479,54.639c5.188,1.067,10.359,1.57,15.454,1.57c35.695,0,67.772-25.071,75.213-61.372
			l20.565-100.275c0-0.017,0.009-0.034,0.009-0.043l20.557-100.241c0-0.026,0.009-0.051,0.009-0.068l20.557-100.233
			c0-0.009,0.008-0.026,0.008-0.034l20.395-96.418c0.051-0.265,0.111-0.538,0.162-0.794l8.474-33.877
			C510.921,11.343,510.34,8.637,508.727,6.572z M353.916,20.354c-11.452,27.145-44.143,45.875-73.071,39.927
			c-21.112-4.326-38.084-19.831-44.689-39.927H353.916z M80.013,62.662l6.963-34.014c13.013,12.749,33.741,25.839,56.627,25.839
			c19.157,0,44.51-7.202,63.428-18.833l-9.993,50.995c-1.579,7.68-4.608,14.686-8.695,20.864c-0.205,0.307-0.384,0.649-0.597,0.956
			c-0.469,0.683-1.007,1.306-1.502,1.963c-13.466,17.869-36.446,27.503-59.716,22.733c-3.191-0.649-6.255-1.613-9.216-2.748
			c-0.375-0.137-0.751-0.265-1.109-0.41c-2.91-1.178-5.7-2.577-8.354-4.173c-0.239-0.145-0.469-0.29-0.708-0.435
			c-8.286-5.154-15.155-12.262-20.07-20.599c-0.171-0.29-0.358-0.58-0.529-0.879c-1.459-2.594-2.722-5.299-3.789-8.09
			c-0.179-0.469-0.341-0.939-0.512-1.408c-0.998-2.816-1.818-5.709-2.389-8.678c-0.06-0.316-0.085-0.64-0.137-0.947
			c-0.546-3.132-0.887-6.323-0.904-9.574c0-0.026-0.009-0.051-0.009-0.085C78.818,70.683,79.228,66.485,80.013,62.662z
			 M130.274,325.139c-13.321,8.798-29.286,11.836-44.885,8.653c-2.005-0.41-3.959-0.913-5.862-1.51
			c-0.35-0.111-0.683-0.264-1.024-0.375c-1.57-0.521-3.123-1.067-4.625-1.707c-0.119-0.051-0.222-0.119-0.341-0.162
			c-23.33-10.155-37.956-34.389-35.618-60.117c0.017-0.213,0.009-0.427,0.034-0.631c0.205-1.997,0.503-4.002,0.913-6.007
			l10.889-53.069c0.051,0.102,0.128,0.196,0.179,0.307c1.229,2.338,2.56,4.617,4.019,6.818c0.23,0.35,0.503,0.674,0.742,1.024
			c1.254,1.835,2.569,3.618,3.977,5.342c0.58,0.7,1.22,1.357,1.826,2.048c1.143,1.306,2.313,2.594,3.55,3.814
			c0.734,0.725,1.502,1.408,2.261,2.108c1.212,1.109,2.44,2.185,3.729,3.217c0.836,0.666,1.69,1.314,2.551,1.946
			c1.314,0.964,2.662,1.886,4.036,2.773c0.905,0.58,1.818,1.152,2.748,1.698c1.459,0.845,2.953,1.621,4.471,2.372
			c0.93,0.469,1.843,0.947,2.799,1.374c1.69,0.751,3.448,1.408,5.214,2.048c0.836,0.307,1.655,0.657,2.509,0.93
			c2.654,0.853,5.359,1.596,8.149,2.167c2.807,0.572,5.589,0.964,8.371,1.22c0.87,0.077,1.741,0.077,2.611,0.128
			c1.485,0.094,2.987,0.23,4.471,0.23c0.427,0,0.845-0.051,1.28-0.06c0.794-0.009,1.579-0.068,2.372-0.102
			c1.886-0.094,3.755-0.247,5.606-0.478c0.819-0.094,1.63-0.196,2.441-0.316c2.125-0.333,4.224-0.751,6.306-1.263
			c0.418-0.102,0.853-0.171,1.271-0.273c2.466-0.649,4.872-1.425,7.245-2.304c0.674-0.256,1.331-0.546,1.997-0.811
			c1.724-0.7,3.422-1.442,5.086-2.261c0.759-0.367,1.51-0.742,2.253-1.143c1.673-0.887,3.294-1.835,4.89-2.842
			c0.572-0.358,1.161-0.683,1.724-1.058c2.082-1.382,4.096-2.859,6.042-4.446c0.094-0.077,0.205-0.137,0.299-0.222l-10.88,53.077
			c-0.358,1.766-0.819,3.49-1.331,5.197c-0.051,0.188-0.085,0.375-0.145,0.563C150.353,306.203,141.931,317.45,130.274,325.139z
			 M269.077,415.02c-3.208,15.633-12.305,29.073-25.626,37.862c-13.329,8.789-29.286,11.844-44.894,8.653
			c-15.633-3.209-29.073-12.314-37.862-25.626c-8.789-13.329-11.861-29.269-8.653-44.894l10.871-53.009
			c0.043,0.068,0.085,0.128,0.12,0.196c1.212,2.313,2.534,4.582,3.994,6.784c11.29,17.126,28.587,28.826,48.674,32.947
			c2.569,0.529,5.137,0.913,7.706,1.178c0.35,0.034,0.691,0.026,1.041,0.06c6.212,0.555,12.407,0.316,18.483-0.631
			c0.529-0.077,1.067-0.128,1.596-0.222c1.621-0.29,3.217-0.666,4.813-1.058c0.623-0.154,1.254-0.29,1.877-0.461
			c1.527-0.418,3.038-0.905,4.548-1.417c0.674-0.23,1.348-0.461,2.014-0.708c1.434-0.538,2.842-1.109,4.25-1.724
			c0.734-0.333,1.459-0.674,2.193-1.024c1.314-0.631,2.62-1.28,3.908-1.988c0.802-0.444,1.57-0.93,2.355-1.391
			c0.973-0.589,1.98-1.109,2.935-1.741c0.222-0.145,0.41-0.316,0.631-0.469c1.451-0.973,2.842-2.031,4.224-3.106
			c0.546-0.418,1.143-0.794,1.672-1.229L269.077,415.02z M284.591,252.256c-13.321,8.798-29.278,11.844-44.885,8.653
			c-15.633-3.209-29.082-12.305-37.871-25.626c-1.092-1.664-2.099-3.371-3.021-5.112c-1.784-3.388-3.226-6.912-4.318-10.53
			c-0.026-0.094-0.068-0.179-0.094-0.273c-2.765-9.284-3.217-19.166-1.229-28.919l0.009-0.06l10.88-53.009
			c1.237,2.389,2.603,4.719,4.104,6.989c11.29,17.126,28.587,28.826,48.674,32.939c20.079,4.122,40.584,0.188,57.719-11.128
			c2.278-1.493,4.446-3.098,6.528-4.804l-10.871,53.018C307.008,230.026,297.911,243.466,284.591,252.256z M423.403,342.129
			c-3.209,15.633-12.305,29.082-25.626,37.862c-13.338,8.798-29.286,11.844-44.894,8.661c-15.633-3.208-29.073-12.314-37.862-25.626
			c-8.789-13.329-11.861-29.269-8.653-44.894l10.88-53.077c0.051,0.102,0.119,0.188,0.171,0.29c1.237,2.355,2.577,4.651,4.045,6.869
			c0.179,0.273,0.401,0.529,0.589,0.802c1.297,1.911,2.671,3.772,4.139,5.555c0.555,0.674,1.161,1.306,1.741,1.963
			c1.178,1.331,2.364,2.645,3.627,3.9c0.717,0.708,1.476,1.374,2.219,2.057c1.229,1.126,2.475,2.219,3.772,3.26
			c0.828,0.657,1.673,1.297,2.526,1.929c1.323,0.973,2.679,1.894,4.07,2.79c0.896,0.572,1.792,1.143,2.714,1.681
			c1.468,0.853,2.97,1.63,4.497,2.389c0.93,0.461,1.835,0.93,2.782,1.357c1.698,0.759,3.447,1.417,5.214,2.057
			c0.845,0.307,1.655,0.649,2.517,0.93c2.654,0.853,5.359,1.596,8.149,2.167c2.79,0.572,5.564,0.956,8.329,1.212
			c0.947,0.094,1.877,0.094,2.825,0.145c1.434,0.077,2.876,0.213,4.309,0.213c0.401,0,0.802-0.043,1.203-0.051
			c0.853-0.008,1.69-0.068,2.526-0.111c1.835-0.085,3.644-0.239,5.444-0.461c0.853-0.102,1.707-0.205,2.551-0.333
			c2.091-0.324,4.147-0.742,6.187-1.229c0.452-0.111,0.913-0.188,1.357-0.307c2.466-0.64,4.881-1.417,7.253-2.295
			c0.649-0.247,1.289-0.529,1.937-0.794c1.758-0.708,3.49-1.468,5.18-2.295c0.725-0.35,1.442-0.717,2.15-1.092
			c1.741-0.922,3.43-1.911,5.094-2.961c0.503-0.316,1.024-0.606,1.519-0.93c2.125-1.408,4.181-2.918,6.153-4.531
			c0.077-0.06,0.171-0.111,0.247-0.179L423.403,342.129z M464.542,141.501c-3.208,15.633-12.305,29.082-25.626,37.862
			c-13.321,8.806-29.278,11.844-44.885,8.661c-2.005-0.41-3.959-0.922-5.862-1.51c-0.358-0.12-0.691-0.265-1.041-0.384
			c-1.562-0.521-3.115-1.067-4.608-1.698c-0.137-0.06-0.273-0.145-0.41-0.205c-8.943-3.9-16.614-9.856-22.536-17.169
			c-1.203-1.485-2.347-3.038-3.413-4.659c-2.193-3.328-4.028-6.818-5.504-10.428c-0.017-0.043-0.026-0.085-0.051-0.137
			c-4.361-10.769-5.478-22.571-3.115-34.21l14.08-55.629c5.7,14.131,15.334,26.317,28.732,34.287
			c0.094,0.06,0.188,0.111,0.282,0.171c1.852,1.092,3.755,2.116,5.76,3.029c0.811,0.384,1.655,0.708,2.492,1.058
			c1.459,0.597,2.901,1.22,4.429,1.724c2.569,0.862,5.197,1.604,7.893,2.159c2.68,0.546,5.35,0.947,8.021,1.229
			c0.998,0.111,1.988,0.128,2.987,0.205c1.673,0.12,3.345,0.239,5.009,0.256c0.307,0,0.606,0.043,0.913,0.043
			c0.546,0,1.075-0.094,1.621-0.111c2.517-0.043,5.009-0.213,7.492-0.495c0.845-0.094,1.69-0.171,2.534-0.29
			c3.081-0.452,6.118-1.041,9.105-1.843c0.512-0.137,0.998-0.333,1.51-0.478c2.56-0.742,5.06-1.63,7.526-2.637
			c0.794-0.316,1.57-0.64,2.347-0.99c2.867-1.28,5.683-2.679,8.388-4.309c2.27-1.382,4.429-2.884,6.502-4.463
			c0.077-0.06,0.162-0.111,0.239-0.162L464.542,141.501z M485.124,44.17c0,0.009,0,0.009-0.009,0.017l-0.017,0.094
			c-0.239,1.152-0.572,2.261-0.879,3.388c-0.23,0.853-0.435,1.732-0.7,2.569c-0.324,0.998-0.725,1.946-1.092,2.91
			c-0.316,0.819-0.606,1.655-0.956,2.458c-0.41,0.922-0.896,1.801-1.348,2.697c-0.401,0.785-0.768,1.587-1.203,2.338
			c-0.486,0.845-1.032,1.647-1.562,2.458c-0.486,0.751-0.947,1.519-1.459,2.244c-0.546,0.759-1.152,1.459-1.724,2.176
			c-0.58,0.725-1.135,1.476-1.749,2.167c-0.58,0.649-1.212,1.254-1.826,1.877c-0.683,0.7-1.331,1.417-2.048,2.074
			c-0.597,0.555-1.246,1.05-1.869,1.57c-0.794,0.674-1.562,1.365-2.389,1.988c-0.589,0.435-1.212,0.828-1.818,1.246
			c-0.913,0.631-1.826,1.297-2.782,1.877c-0.555,0.341-1.143,0.623-1.707,0.947c-1.058,0.597-2.108,1.212-3.2,1.741
			c-0.503,0.247-1.041,0.435-1.553,0.666c-1.195,0.546-2.389,1.092-3.627,1.553c-0.444,0.162-0.913,0.282-1.357,0.435
			c-1.348,0.469-2.688,0.922-4.07,1.297c-0.35,0.094-0.717,0.145-1.067,0.239c-1.502,0.367-3.021,0.725-4.565,0.99
			c-0.265,0.051-0.538,0.06-0.802,0.102c-1.647,0.256-3.311,0.486-5,0.606c-0.23,0.017-0.469,0.009-0.7,0.026
			c-1.732,0.111-3.482,0.179-5.257,0.145c-0.094,0-0.188-0.017-0.282-0.017c-3.917-0.085-7.893-0.521-11.913-1.34
			c-14.797-3.029-27.068-12.527-34.569-26.735c-1.434-2.714-2.611-5.589-3.652-8.533c-0.162-0.452-0.341-0.905-0.486-1.365
			c-0.939-2.842-1.673-5.777-2.244-8.772c-0.102-0.546-0.196-1.109-0.29-1.664c-0.503-3.046-0.845-6.135-0.964-9.267
			c-0.017-0.358,0-0.725-0.008-1.092c-0.068-3.106,0.043-6.229,0.358-9.353c0.017-0.188,0.017-0.375,0.043-0.572h118.298
			L485.124,44.17z"/>
	</g>
</g>
<g>
</g>
<g>
</g>
<g>
</g>
<g>
</g>
<g>
</g>
<g>
</g>
<g>
</g>
<g>
</g>
<g>
</g>
<g>
</g>
<g>
</g>
<g>
</g>
<g>
</g>
<g>
</g>
<g>
</g>
</svg>
