<?xml version="1.0" encoding="iso-8859-1"?>
<!-- Generator: Adobe Illustrator 19.0.0, SVG Export Plug-In . SVG Version: 6.00 Build 0)  -->
<svg version="1.1" id="Layer_1" xmlns="http://www.w3.org/2000/svg" xmlns:xlink="http://www.w3.org/1999/xlink" x="0px" y="0px"
	 viewBox="0 0 512 512" style="enable-background:new 0 0 512 512;" xml:space="preserve">
<g>
	<g>
		<path d="M502.747,74.024H9.253C4.143,74.024,0,78.166,0,83.277v296.096c0,32.313,26.29,58.602,58.602,58.602
			c20.705,0,38.922-10.803,49.349-27.058c10.428,16.256,28.645,27.058,49.349,27.058s38.922-10.803,49.349-27.058
			c10.427,16.256,28.645,27.058,49.349,27.058s38.923-10.803,49.349-27.058c10.426,16.256,28.645,27.058,49.349,27.058
			c20.705,0,38.923-10.803,49.349-27.058c10.426,16.256,28.645,27.058,49.349,27.058c32.313,0,58.602-26.29,58.602-58.602V83.277
			C512,78.166,507.858,74.024,502.747,74.024z M363.952,92.53h80.193v27.759c0,22.11-17.987,40.096-40.096,40.096
			s-40.096-17.987-40.096-40.096V92.53z M354.699,151.833c8.841,13.783,23.282,23.641,40.096,26.32v28.497
			c0,22.11-17.987,40.096-40.096,40.096s-40.096-17.987-40.096-40.096v-28.497C331.417,175.474,345.858,165.617,354.699,151.833z
			 M265.253,92.53h80.193v27.759c0,22.11-17.987,40.096-40.096,40.096c-22.11,0-40.096-17.987-40.096-40.096V92.53z M256,151.833
			c8.841,13.783,23.282,23.641,40.096,26.32v28.497c0,22.11-17.987,40.096-40.096,40.096c-22.109,0-40.096-17.987-40.096-40.096
			v-28.497C232.717,175.474,247.158,165.617,256,151.833z M166.554,92.53h80.193v27.759c0,22.11-17.988,40.096-40.096,40.096
			c-22.109,0-40.096-17.987-40.096-40.096V92.53z M157.301,151.833c8.842,13.783,23.283,23.641,40.096,26.32v28.497
			c0,22.11-17.988,40.096-40.096,40.096s-40.096-17.987-40.096-40.096v-28.497C134.018,175.474,148.46,165.617,157.301,151.833z
			 M67.855,92.53h80.193v27.759c0,22.11-17.988,40.096-40.096,40.096c-22.109,0-40.096-17.987-40.096-40.096V92.53z M18.506,92.53
			h30.843v27.759c0,18.925-13.182,34.817-30.843,39.007V92.53z M18.506,178.154c16.813-2.68,31.254-12.537,40.096-26.32
			c8.842,13.783,23.283,23.641,40.096,26.32v28.497c0,22.11-17.988,40.096-40.096,40.096s-40.096-17.987-40.096-40.096V178.154z
			 M18.506,249.33c8.36,7.859,19.013,13.301,30.843,15.185v28.497c0,18.926-13.182,34.817-30.843,39.007V249.33z M98.699,379.373
			c0,22.11-17.988,40.096-40.096,40.096s-40.096-17.987-40.096-40.096v-28.497c16.813-2.68,31.254-12.537,40.096-26.321
			c8.842,13.783,23.283,23.641,40.096,26.32V379.373z M107.952,333.108c-22.109,0-40.096-17.987-40.096-40.096v-28.497
			c16.813-2.68,31.255-12.537,40.096-26.32c8.841,13.783,23.283,23.641,40.096,26.32v28.497
			C148.048,315.122,130.06,333.108,107.952,333.108z M197.398,379.373c0,22.11-17.988,40.096-40.096,40.096
			s-40.096-17.987-40.096-40.096v-28.497c16.813-2.68,31.255-12.537,40.096-26.321c8.842,13.783,23.283,23.641,40.096,26.32V379.373
			z M206.651,333.108c-22.109,0-40.096-17.987-40.096-40.096v-28.497c16.813-2.68,31.254-12.537,40.096-26.32
			c8.842,13.783,23.283,23.641,40.096,26.32v28.497C246.747,315.122,228.759,333.108,206.651,333.108z M296.096,379.373
			c0,22.11-17.987,40.096-40.096,40.096c-22.109,0-40.096-17.987-40.096-40.096v-28.497c16.813-2.68,31.254-12.537,40.096-26.321
			c8.841,13.783,23.282,23.641,40.096,26.32V379.373z M305.349,333.108c-22.11,0-40.096-17.987-40.096-40.096v-28.497
			c16.815-2.68,31.255-12.537,40.096-26.32c8.841,13.783,23.282,23.641,40.096,26.32v28.497
			C345.446,315.122,327.459,333.108,305.349,333.108z M394.795,379.373c0,22.11-17.987,40.096-40.096,40.096
			s-40.096-17.987-40.096-40.096v-28.497c16.815-2.68,31.255-12.537,40.096-26.321c8.841,13.783,23.282,23.641,40.096,26.32V379.373
			z M404.048,333.108c-22.11,0-40.096-17.987-40.096-40.096v-28.497c16.815-2.68,31.255-12.537,40.096-26.32
			c8.841,13.783,23.282,23.641,40.096,26.32v28.497C444.145,315.122,426.158,333.108,404.048,333.108z M493.494,379.373
			c0,22.11-17.987,40.096-40.096,40.096s-40.096-17.987-40.096-40.096v-28.497c16.815-2.68,31.255-12.537,40.096-26.321
			c8.841,13.783,23.282,23.641,40.096,26.32V379.373z M493.494,332.018c-17.661-4.19-30.843-20.082-30.843-39.007v-28.496
			c11.83-1.884,22.484-7.326,30.843-15.186V332.018z M493.494,206.651c0,22.11-17.987,40.096-40.096,40.096
			s-40.096-17.987-40.096-40.096v-28.497c16.815-2.68,31.255-12.537,40.096-26.32c8.841,13.783,23.282,23.641,40.096,26.32V206.651z
			 M493.494,159.296c-17.661-4.19-30.843-20.081-30.843-39.007V92.53h30.843V159.296z"/>
	</g>
</g>
<g>
</g>
<g>
</g>
<g>
</g>
<g>
</g>
<g>
</g>
<g>
</g>
<g>
</g>
<g>
</g>
<g>
</g>
<g>
</g>
<g>
</g>
<g>
</g>
<g>
</g>
<g>
</g>
<g>
</g>
</svg>
